  <svg
    xmlns="http://www.w3.org/2000/svg"
    version="1.1"
    xlink="http://www.w3.org/1999/xlink"
    xmlns:svgjs="http://svgjs.com/svgjs"
    width="100%"
    height="100%"
    viewBox="0.006007730960845947 0.9959999322891235 99.95211791992188 98.0080795288086"
  >
    <g fill="#c43a21">
      <g fill-rule="evenodd">
        <path d="M94.961 47.219c-.352 0-.703-.059-.938-.293L50.262 10.078h-.41L6.031 46.926c-.352.234-.645.293-1.055.293-.41 0-.762-.234-.996-.469L.348 42.414c-.528-.527-.41-1.464.117-1.992L44.403 3.516C47.567.88 52.372.88 55.59 3.516l43.88 36.906c.586.469.644 1.348.176 1.992l-3.633 4.336c-.293.293-.586.469-.996.469h-.059zM3.399 41.711l1.816 2.11L47.981 7.91c1.055-.82 2.813-.82 3.868 0l42.824 35.97 1.816-2.11L53.841 5.684c-2.168-1.699-5.45-1.699-7.559 0z"></path>
        <path d="M15.699 89.164c-.82 0-1.406-.645-1.465-1.406l-.058-50.848c0-.82.644-1.465 1.347-1.465.82 0 1.407.645 1.465 1.406l.059 50.848c0 .82-.645 1.465-1.348 1.465zm68.66 0c-.82 0-1.348-.645-1.465-1.406l-.058-50.906c0-.82.644-1.465 1.347-1.465.82 0 1.407.645 1.465 1.348l.117 50.965c0 .82-.644 1.465-1.406 1.465z"></path>
        <path
          d="M96.777 99.004H3.164a1.45 1.45 0 0 1-1.465-1.465v-9.785c0-.762.645-1.465 1.465-1.465h93.613c.82 0 1.465.703 1.465 1.465v9.785a1.45 1.45 0 0 1-1.465 1.465zM4.57 96.133h90.859v-6.914H4.57zm67.309-30.11c-.352 0-.762-.176-.996-.41l-3.281-3.281c-.235-.235-.41-.645-.41-1.055s.175-.703.41-1.055c.351-.293.527-.644.527-1.054 0-.41-.176-.88-.527-1.231-.645-.644-1.582-.644-2.227 0-.586.586-1.465.586-2.05 0L47.038 41.71c-.234-.234-.41-.644-.41-1.055s.176-.761.527-.996l.235-.234c-.469-1.23-1.64-3.516-3.926-4.57-2.11-.938-4.687-.645-7.852.937-.644.293-1.406.117-1.816-.41-.41-.586-.293-1.348.117-1.816 3.692-3.985 7.617-5.86 11.598-5.625 4.22.351 7.324 2.93 8.79 4.628.234-.117.585-.234.82-.234.41 0 .703.176.937.41L72.344 49.09c.586.586.586 1.465 0 2.051a1.592 1.592 0 0 0 0 2.285c.586.528 1.64.528 2.285 0a1.349 1.349 0 0 1 1.993 0l3.28 3.223c.587.586.587 1.465 0 2.05L72.93 65.73c-.351.117-.703.293-1.055.293zm-1.406-4.805l1.406 1.348 5.04-5.04-1.407-1.347a4.476 4.476 0 0 1-1.934.469c-1.23 0-2.285-.469-3.164-1.29-1.406-1.405-1.64-3.398-.82-5.155l-14.47-14.527c-.35.234-.644.41-1.054.351-.41 0-.82-.234-1.055-.586 0-.058-3.164-4.394-7.734-4.629a9.561 9.561 0 0 0-3.984.703c1.23.118 2.343.352 3.398.82 4.336 2.052 5.625 7.032 5.684 7.266.117.41 0 .88-.235 1.23l14.41 14.353c1.582-.82 3.692-.586 5.098.82.879.88 1.406 2.051 1.29 3.223 0 .703-.177 1.348-.47 1.992z"
        ></path>
        <path d="M25.191 83.305c-1.465 0-2.813-.586-3.867-1.64-2.227-2.169-2.227-5.743 0-7.852l29.879-29.996c.234-.235.644-.41.996-.41.41 0 .703.175.937.41l5.977 5.918a1.527 1.527 0 0 1 0 2.05L29.117 81.783c-1.055.937-2.46 1.523-3.926 1.523zm27.008-36.496L23.258 75.75c-1.055 1.055-1.055 2.871 0 3.926 1.055 1.054 2.813 1.054 3.809 0l28.94-28.941z"></path>
        <path d="M31.809 78.441c-.352 0-.762-.176-.996-.41l-5.918-5.918c-.586-.586-.586-1.465 0-2.051a1.349 1.349 0 0 1 1.992 0l5.977 5.918a1.527 1.527 0 0 1 0 2.05c-.352.235-.645.411-1.055.411zm-7.497-54.773a1.45 1.45 0 0 1-1.465-1.465V2.461c0-.82.645-1.465 1.465-1.465h7.793c.82 0 1.465.645 1.465 1.465V15.7a1.45 1.45 0 0 1-1.465 1.465A1.45 1.45 0 0 1 30.64 15.7V3.81h-4.863v18.45c0 .762-.645 1.406-1.465 1.406z"></path>
      </g>
    </g>
  </svg>